<?xml version="1.0" encoding="UTF-8"?>
<svg version="1.1" xmlns="http://www.w3.org/2000/svg" width="512" height="512">
<path d="M0 0 C0.91297852 0.16628906 1.82595703 0.33257812 2.76660156 0.50390625 C44.3986228 8.16363077 83.16052206 26.40624883 116 53 C116.54446777 53.44005371 117.08893555 53.88010742 117.64990234 54.33349609 C131.72173929 65.81174863 144.93680647 78.57719064 156 93 C156.75925781 93.93070312 157.51851563 94.86140625 158.30078125 95.8203125 C184.1596216 128.07168914 200.62794761 167.52514646 208 208 C208.16371094 208.83563477 208.32742188 209.67126953 208.49609375 210.53222656 C213.78656862 238.24163521 213.41678597 270.35093304 208 298 C207.83371094 298.91297852 207.66742188 299.82595703 207.49609375 300.76660156 C199.83636923 342.3986228 181.59375117 381.16052206 155 414 C154.55994629 414.54446777 154.11989258 415.08893555 153.66650391 415.64990234 C142.18825137 429.72173929 129.42280936 442.93680647 115 454 C114.06929688 454.75925781 113.13859375 455.51851563 112.1796875 456.30078125 C79.92831086 482.1596216 40.47485354 498.62794761 0 506 C-0.83563477 506.16371094 -1.67126953 506.32742188 -2.53222656 506.49609375 C-30.24163521 511.78656862 -62.35093304 511.41678597 -90 506 C-90.91297852 505.83371094 -91.82595703 505.66742188 -92.76660156 505.49609375 C-134.3986228 497.83636923 -173.16052206 479.59375117 -206 453 C-206.54446777 452.55994629 -207.08893555 452.11989258 -207.64990234 451.66650391 C-221.72173929 440.18825137 -234.93680647 427.42280936 -246 413 C-246.75925781 412.06929688 -247.51851562 411.13859375 -248.30078125 410.1796875 C-274.1596216 377.92831086 -290.62794761 338.47485354 -298 298 C-298.16371094 297.16436523 -298.32742188 296.32873047 -298.49609375 295.46777344 C-303.78656862 267.75836479 -303.41678597 235.64906696 -298 208 C-297.83371094 207.08702148 -297.66742188 206.17404297 -297.49609375 205.23339844 C-289.83636923 163.6013772 -271.59375117 124.83947794 -245 92 C-244.55994629 91.45553223 -244.11989258 90.91106445 -243.66650391 90.35009766 C-232.18825137 76.27826071 -219.42280936 63.06319353 -205 52 C-204.06929688 51.24074219 -203.13859375 50.48148438 -202.1796875 49.69921875 C-169.92831086 23.8403784 -130.47485354 7.37205239 -90 0 C-89.16436523 -0.16371094 -88.32873047 -0.32742188 -87.46777344 -0.49609375 C-59.75836479 -5.78656862 -27.64906696 -5.41678597 0 0 Z M-139 62 C-139.63276855 62.3211377 -140.26553711 62.64227539 -140.91748047 62.97314453 C-162.38896306 73.95842943 -180.93004553 88.00843268 -198 105 C-198.54495117 105.54092285 -199.08990234 106.0818457 -199.65136719 106.63916016 C-213.77279214 120.83574611 -224.44289878 137.50006424 -234 155 C-234.63421875 156.13179688 -235.2684375 157.26359375 -235.921875 158.4296875 C-261.02607122 205.52884463 -264.43932913 263.98083568 -249.20214844 314.65332031 C-245.66123658 325.83100581 -241.31841266 336.55181081 -236 347 C-235.6788623 347.63276855 -235.35772461 348.26553711 -235.02685547 348.91748047 C-224.04157057 370.38896306 -209.99156732 388.93004553 -193 406 C-192.45907715 406.54495117 -191.9181543 407.08990234 -191.36083984 407.65136719 C-177.16425389 421.77279214 -160.49993576 432.44289878 -143 442 C-141.86820312 442.63421875 -140.73640625 443.2684375 -139.5703125 443.921875 C-92.47115537 469.02607122 -34.01916432 472.43932913 16.65332031 457.20214844 C27.83100581 453.66123658 38.55181081 449.31841266 49 444 C49.63276855 443.6788623 50.26553711 443.35772461 50.91748047 443.02685547 C72.38896306 432.04157057 90.93004553 417.99156732 108 401 C108.54495117 400.45907715 109.08990234 399.9181543 109.65136719 399.36083984 C123.77279214 385.16425389 134.44289878 368.49993576 144 351 C144.63421875 349.86820312 145.2684375 348.73640625 145.921875 347.5703125 C171.02607122 300.47115537 174.43932913 242.01916432 159.20214844 191.34667969 C155.66123658 180.16899419 151.31841266 169.44818919 146 159 C145.6788623 158.36723145 145.35772461 157.73446289 145.02685547 157.08251953 C134.04157057 135.61103694 119.99156732 117.06995447 103 100 C102.45907715 99.45504883 101.9181543 98.91009766 101.36083984 98.34863281 C87.16425389 84.22720786 70.49993576 73.55710122 53 64 C51.86820312 63.36578125 50.73640625 62.7315625 49.5703125 62.078125 C-7.8764422 31.45858337 -81.45131374 32.70615242 -139 62 Z " fill="#00bcff" transform="translate(301,3)"/>
<path d="M0 0 C3 2.4375 3 2.4375 5 5 C5.33 5.33 5.66 5.66 6 6 C6.74736535 12.33966031 5.62878175 17.06043296 2.75097656 22.65435791 C2.40135203 23.36905802 2.0517275 24.08375812 1.69150829 24.8201158 C0.5247903 27.19387755 -0.6670164 29.55406613 -1.859375 31.91503906 C-2.70500711 33.62178527 -3.54911982 35.329285 -4.39183044 37.03747559 C-6.67906481 41.66141396 -8.98896712 46.27366878 -11.30437851 50.88354969 C-13.23724994 54.73703489 -15.15886429 58.59608391 -17.08050442 62.45517898 C-21.61444561 71.55998861 -26.16672434 80.65545933 -30.73095703 89.74511719 C-35.43577979 99.11546662 -40.11131534 108.50000263 -44.77235985 117.89219499 C-48.77935126 125.96413218 -52.80340347 134.02739723 -56.84142494 142.08385634 C-59.25120608 146.89201112 -61.65465042 151.70306547 -64.04211426 156.5223465 C-66.28780982 161.05337936 -68.5547069 165.57316135 -70.83821297 170.08525085 C-71.6713762 171.74025374 -72.49710656 173.39902325 -73.31469536 175.06177521 C-80.95785945 190.58490948 -80.95785945 190.58490948 -89 194 C-90.7564605 194.90875112 -92.51245016 195.81846368 -94.26317394 196.73821819 C-97.88318689 198.62705217 -101.53845605 200.44615818 -105.18725586 202.27856445 C-106.82912779 203.10659374 -108.47085261 203.93491478 -110.11244202 204.76350403 C-115.47698209 207.46926317 -120.84573857 210.16659515 -126.21484375 212.86328125 C-128.06829449 213.7947142 -129.92172929 214.72617887 -131.77514839 215.65767479 C-139.4831594 219.53090025 -147.19221279 223.40203674 -154.90418148 227.2673769 C-165.93602415 232.79671821 -176.96150648 238.3383129 -187.97840589 243.89737159 C-195.73962958 247.81241247 -203.50770705 251.71362147 -211.28102976 255.60458344 C-215.91855167 257.92634401 -220.55289416 260.25398111 -225.18003654 262.59636879 C-229.52987757 264.7979734 -233.88797093 266.98228769 -238.25293541 269.15374565 C-239.85037462 269.95210734 -241.44476319 270.75660792 -243.03574753 271.56775665 C-245.21371264 272.67698293 -247.40174727 273.7632435 -249.59361267 274.84468079 C-250.21561945 275.16810984 -250.83762624 275.4915389 -251.47848171 275.82476884 C-256.19874193 278.10933315 -260.83331926 278.90089606 -266 278 C-269 275.5625 -269 275.5625 -271 273 C-271.33 272.67 -271.66 272.34 -272 272 C-272.74736535 265.66033969 -271.62878175 260.93956704 -268.75097656 255.34564209 C-268.22653977 254.27359193 -268.22653977 254.27359193 -267.69150829 253.1798842 C-266.5247903 250.80612245 -265.3329836 248.44593387 -264.140625 246.08496094 C-263.29499289 244.37821473 -262.45088018 242.670715 -261.60816956 240.96252441 C-259.32093519 236.33858604 -257.01103288 231.72633122 -254.69562149 227.11645031 C-252.76275006 223.26296511 -250.84113571 219.40391609 -248.91949558 215.54482102 C-244.38555439 206.44001139 -239.83327566 197.34454067 -235.26904297 188.25488281 C-230.56422021 178.88453338 -225.88868466 169.49999737 -221.22764015 160.10780501 C-217.22064874 152.03586782 -213.19659653 143.97260277 -209.15857506 135.91614366 C-206.74879392 131.10798888 -204.34534958 126.29693453 -201.95788574 121.4776535 C-199.71219018 116.94662064 -197.4452931 112.42683865 -195.16178703 107.91474915 C-194.3286238 106.25974626 -193.50289344 104.60097675 -192.68530464 102.93822479 C-185.04214055 87.41509052 -185.04214055 87.41509052 -177 84 C-175.2435395 83.09124888 -173.48754984 82.18153632 -171.73682606 81.26178181 C-168.11681311 79.37294783 -164.46154395 77.55384182 -160.81274414 75.72143555 C-159.17087221 74.89340626 -157.52914739 74.06508522 -155.88755798 73.23649597 C-150.52301791 70.53073683 -145.15426143 67.83340485 -139.78515625 65.13671875 C-137.93170551 64.2052858 -136.07827071 63.27382113 -134.22485161 62.34232521 C-126.5168406 58.46909975 -118.80778721 54.59796326 -111.09581852 50.7326231 C-100.06397585 45.20328179 -89.03849352 39.6616871 -78.02159411 34.10262841 C-70.26037042 30.18758753 -62.49229295 26.28637853 -54.71897024 22.39541656 C-50.08144833 20.07365599 -45.44710584 17.74601889 -40.81996346 15.40363121 C-36.47012243 13.2020266 -32.11202907 11.01771231 -27.74706459 8.84625435 C-26.14962538 8.04789266 -24.55523681 7.24339208 -22.96425247 6.43224335 C-20.78628736 5.32301707 -18.59825273 4.2367565 -16.40638733 3.15531921 C-15.78438055 2.83189016 -15.16237376 2.5084611 -14.52151829 2.17523116 C-9.80125807 -0.10933315 -5.16668074 -0.90089606 0 0 Z M-149 125 C-152.88288308 130.39289317 -154.2718631 135.32889787 -154 142 C-152.5916013 148.62640043 -149.37466481 153.29024133 -143.875 157.25 C-138.85818126 159.88194987 -133.31283433 160.70412158 -127.7578125 159.5234375 C-121.50183035 157.37515684 -116.92999643 154.03034013 -113.79296875 148.05078125 C-111.70752157 142.65738338 -111.30231932 137.17731187 -113.1875 131.6875 C-115.91284197 125.61353158 -119.69557733 121.4377101 -126 119 C-134.83895647 116.88038075 -142.4686893 118.4686893 -149 125 Z " fill="#00bcff" transform="translate(389,117)"/>
</svg>
